<?xml version="1.0" encoding="UTF-8" standalone="no"?>
<svg
   xmlns:dc="http://purl.org/dc/elements/1.1/"
   xmlns:cc="http://creativecommons.org/ns#"
   xmlns:rdf="http://www.w3.org/1999/02/22-rdf-syntax-ns#"
   xmlns:svg="http://www.w3.org/2000/svg"
   xmlns="http://www.w3.org/2000/svg"
   xmlns:sodipodi="http://sodipodi.sourceforge.net/DTD/sodipodi-0.dtd"
   xmlns:inkscape="http://www.inkscape.org/namespaces/inkscape"
   sodipodi:docname="Iliad_logo.svg"
   inkscape:version="1.0 (4035a4f, 2020-05-01)"
   id="svg616"
   version="1.1"
   viewBox="0 0 29.395208 12.117916"
   height="45.799999"
   width="111.1">
  <defs
     id="defs610" />
  <sodipodi:namedview
     inkscape:document-rotation="0"
     inkscape:window-maximized="1"
     inkscape:window-y="25"
     inkscape:window-x="0"
     inkscape:window-height="793"
     inkscape:window-width="1440"
     units="px"
     fit-margin-bottom="0"
     fit-margin-right="0"
     fit-margin-left="0"
     fit-margin-top="0"
     showgrid="false"
     inkscape:current-layer="layer1"
     inkscape:document-units="mm"
     inkscape:cy="25.029262"
     inkscape:cx="74.853041"
     inkscape:zoom="4.2788935"
     inkscape:pageshadow="2"
     inkscape:pageopacity="0.0"
     borderopacity="1.0"
     bordercolor="#666666"
     pagecolor="#ffffff"
     id="base" />
  <metadata
     id="metadata613">
    <rdf:RDF>
      <cc:Work
         rdf:about="">
        <dc:format>image/svg+xml</dc:format>
        <dc:type
           rdf:resource="http://purl.org/dc/dcmitype/StillImage" />
        <dc:title></dc:title>
      </cc:Work>
    </rdf:RDF>
  </metadata>
  <g
     transform="translate(-48.178734,-328.60637)"
     id="layer1"
     inkscape:groupmode="layer"
     inkscape:label="Layer 1">
    <g
       style="fill:#c11923;fill-opacity:1"
       transform="matrix(0.26458333,0,0,0.26458333,47.596651,328.05075)"
       id="g652">
      <g
         style="fill:#c11923;fill-opacity:1"
         id="g622">
        <path
           class="st0"
           d="m 2.5999999,11.7 h 5.5 v 36 h -5.5 z"
           style="fill:#c11923;fill-opacity:1"
           id="rect620" />
      </g>
      <path
         class="st0"
         d="m 28.4,11.7 h 5.5 v 36 h -5.5 z"
         style="fill:#c11923;fill-opacity:1"
         id="rect624" />
      <path
         class="st0"
         d="m 15.5,2.2 h 5.6 v 45.5 h -5.6 z"
         style="fill:#c11923;fill-opacity:1"
         id="rect626" />
      <path
         style="fill:#c11923;fill-opacity:1"
         inkscape:connector-curvature="0"
         class="st0"
         d="m 113,2.1 h -5.5 V 17.6 C 104.9,14 100.7,11.9 95.1,11.5 v 0 0 c -5.3,0 -9.7,1.8 -13,5.4 -3.3,3.6 -5,7.9 -5,12.7 0,4.8 1.6,9 4.8,12.5 3.5,3.9 8,5.8 13.3,5.8 5.3,0 9.8,-1.9 13.3,-5.8 3.2,-3.5 4.8,-7.7 4.8,-12.5 z M 94.9,42.6 c -6.8,0 -12.4,-5.8 -12.4,-12.8 0,-7 5.5,-12.9 12.4,-12.9 6.8,0 12.4,5.8 12.4,12.8 0,7 -5.6,12.9 -12.4,12.9 z"
         id="path628" />
      <path
         style="fill:#c11923;fill-opacity:1"
         inkscape:connector-curvature="0"
         class="st0"
         d="M 7.5,3.4 C 6.9,2.8 6.2,2.5 5.3,2.5 4.4,2.5 3.7,2.8 3.1,3.4 2.5,4 2.2,4.7 2.2,5.6 2.2,6.5 2.5,7.2 3.1,7.8 3.7,8.4 4.5,8.7 5.3,8.7 6.2,8.7 6.9,8.4 7.5,7.8 8.1,7.2 8.4,6.4 8.4,5.6 8.5,4.7 8.2,4 7.5,3.4 Z"
         id="path630" />
      <path
         style="fill:#c11923;fill-opacity:1"
         inkscape:connector-curvature="0"
         class="st0"
         d="M 33.4,3.4 C 32.8,2.8 32,2.5 31.2,2.5 30.3,2.5 29.6,2.8 29,3.4 28.4,4 28.1,4.7 28.1,5.6 c 0,0.9 0.3,1.6 0.9,2.2 0.6,0.6 1.4,0.9 2.2,0.9 0.9,0 1.6,-0.3 2.2,-0.9 C 34,7.2 34.3,6.4 34.3,5.6 34.3,4.7 34,4 33.4,3.4 Z"
         id="path632" />
      <path
         style="fill:#c11923;fill-opacity:1"
         inkscape:connector-curvature="0"
         class="st0"
         d="m 56.6,11.5 c -10,0 -18.1,8.2 -18.1,18.2 0,10 8.1,18.2 18.1,18.2 4.8,0 9.2,-1.9 12.5,-5.1 v 4.8 h 5.5 V 30.5 c 0,-0.3 0,-0.5 0,-0.8 0,-10.1 -8.1,-18.2 -18,-18.2 z m -0.1,31 c -6.9,0 -12.4,-5.7 -12.4,-12.8 0,-7.1 5.6,-12.8 12.4,-12.8 6.9,0 12.4,5.7 12.4,12.8 0,7.1 -5.6,12.8 -12.4,12.8 z"
         id="path634" />
    </g>
  </g>
  <style
     type="text/css"
     id="style618">
	.st0{fill:#CA191C;}
</style>
</svg>
