<?xml version="1.0" encoding="UTF-8"?>
<svg xmlns="http://www.w3.org/2000/svg" xmlns:xlink="http://www.w3.org/1999/xlink" width="28px" height="28px" viewBox="0 0 28 28" version="1.1">
<g id="surface1">
<path style=" stroke:none;fill-rule:nonzero;fill:rgb(6.666667%,44.705882%,72.156863%);fill-opacity:1;" d="M 5.25 24.5 L 3.5 2.625 L 24.5 2.625 L 22.75 24.5 L 14 27.125 Z M 5.25 24.5 "/>
<path style=" stroke:none;fill-rule:nonzero;fill:rgb(20%,66.666667%,86.666667%);fill-opacity:1;" d="M 22.75 4.375 L 14 4.375 L 14 25.8125 L 21 23.625 Z M 22.75 4.375 "/>
<path style=" stroke:none;fill-rule:nonzero;fill:rgb(100%,100%,100%);fill-opacity:1;" d="M 17.0625 15.3125 L 8.3125 15.3125 L 7.875 12.25 L 14.875 10.0625 L 7.875 10.0625 L 7.4375 7.4375 L 21 7.4375 L 20.5625 10.5 L 14.875 12.6875 L 20.125 12.6875 L 19.25 21 L 14 22.75 L 8.75 21 L 8.3125 16.625 L 10.9375 16.625 L 11.375 18.8125 L 14 19.6875 L 16.625 18.8125 Z M 17.0625 15.3125 "/>
</g>
</svg>
