<?xml version="1.0" encoding="UTF-8"?>
<svg xmlns="http://www.w3.org/2000/svg" xmlns:xlink="http://www.w3.org/1999/xlink" width="28px" height="28px" viewBox="0 0 28 28" version="1.1">
<g id="surface1">
<path style=" stroke:none;fill-rule:nonzero;fill:rgb(93.333333%,31.764706%,23.137255%);fill-opacity:1;" d="M 2.261719 15.238281 C 1.578125 14.554688 1.578125 13.445312 2.261719 12.761719 L 12.761719 2.261719 C 13.445312 1.578125 14.554688 1.578125 15.238281 2.261719 L 25.738281 12.761719 C 26.421875 13.445312 26.421875 14.554688 25.738281 15.238281 L 15.238281 25.738281 C 14.554688 26.421875 13.445312 26.421875 12.761719 25.738281 Z M 2.261719 15.238281 "/>
<path style=" stroke:none;fill-rule:nonzero;fill:rgb(100%,100%,100%);fill-opacity:1;" d="M 10.628906 4.429688 L 9.566406 5.492188 L 12.3125 8.238281 C 12.203125 8.476562 12.140625 8.742188 12.140625 9.023438 C 12.140625 9.820312 12.640625 10.5 13.34375 10.761719 L 13.34375 17.480469 C 12.640625 17.746094 12.140625 18.425781 12.140625 19.222656 C 12.140625 20.25 12.972656 21.082031 14 21.082031 C 15.027344 21.082031 15.859375 20.25 15.859375 19.222656 C 15.859375 18.5 15.449219 17.875 14.847656 17.566406 L 14.847656 10.773438 L 17.472656 13.398438 C 17.367188 13.632812 17.308594 13.890625 17.308594 14.164062 C 17.308594 15.191406 18.140625 16.023438 19.167969 16.023438 C 20.195312 16.023438 21.027344 15.191406 21.027344 14.164062 C 21.027344 13.136719 20.195312 12.304688 19.167969 12.304688 C 18.96875 12.304688 18.777344 12.335938 18.59375 12.394531 L 15.777344 9.574219 C 15.828125 9.398438 15.859375 9.214844 15.859375 9.023438 C 15.859375 7.996094 15.027344 7.164062 14 7.164062 C 13.808594 7.164062 13.621094 7.191406 13.449219 7.246094 Z M 10.628906 4.429688 "/>
</g>
</svg>
