<?xml version="1.0" encoding="UTF-8"?>
<svg xmlns="http://www.w3.org/2000/svg" xmlns:xlink="http://www.w3.org/1999/xlink" width="28px" height="28px" viewBox="0 0 28 28" version="1.1">
<g id="surface1">
<path style=" stroke:none;fill-rule:nonzero;fill:rgb(89.411765%,30.196078%,14.901961%);fill-opacity:1;" d="M 23.894531 5.488281 L 22.089844 25.683594 L 13.988281 27.929688 L 5.90625 25.6875 L 4.105469 5.488281 Z M 23.894531 5.488281 "/>
<path style=" stroke:none;fill-rule:nonzero;fill:rgb(94.509804%,39.607843%,16.078431%);fill-opacity:1;" d="M 14 26.210938 L 20.546875 24.398438 L 22.089844 7.140625 L 14 7.140625 Z M 14 26.210938 "/>
<path style=" stroke:none;fill-rule:nonzero;fill:rgb(92.156863%,92.156863%,92.156863%);fill-opacity:1;" d="M 10.496094 12.09375 L 14 12.09375 L 14 9.617188 L 7.789062 9.617188 L 7.847656 10.28125 L 8.457031 17.109375 L 14 17.109375 L 14 14.632812 L 10.722656 14.632812 Z M 11.054688 18.347656 L 8.566406 18.347656 L 8.914062 22.234375 L 13.988281 23.644531 L 14 23.640625 L 14 21.0625 L 13.988281 21.066406 L 11.230469 20.324219 Z M 11.054688 18.347656 "/>
<path style=" stroke:none;fill-rule:nonzero;fill:rgb(0%,0%,0%);fill-opacity:1;" d="M 5.949219 0 L 7.207031 0 L 7.207031 1.242188 L 8.359375 1.242188 L 8.359375 0 L 9.617188 0 L 9.617188 3.765625 L 8.359375 3.765625 L 8.359375 2.503906 L 7.207031 2.503906 L 7.207031 3.765625 L 5.949219 3.765625 Z M 11.273438 1.25 L 10.164062 1.25 L 10.164062 0 L 13.640625 0 L 13.640625 1.25 L 12.53125 1.25 L 12.53125 3.765625 L 11.273438 3.765625 Z M 14.191406 0 L 15.503906 0 L 16.3125 1.324219 L 17.117188 0 L 18.429688 0 L 18.429688 3.765625 L 17.175781 3.765625 L 17.175781 1.898438 L 16.3125 3.238281 L 16.289062 3.238281 L 15.421875 1.898438 L 15.421875 3.765625 L 14.191406 3.765625 Z M 19.058594 0 L 20.316406 0 L 20.316406 2.519531 L 22.085938 2.519531 L 22.085938 3.765625 L 19.058594 3.765625 Z M 19.058594 0 "/>
<path style=" stroke:none;fill-rule:nonzero;fill:rgb(100%,100%,100%);fill-opacity:1;" d="M 13.992188 17.109375 L 17.042969 17.109375 L 16.753906 20.320312 L 13.992188 21.066406 L 13.992188 23.644531 L 19.070312 22.234375 L 19.105469 21.816406 L 19.6875 15.296875 L 19.75 14.632812 L 13.992188 14.632812 Z M 13.992188 12.089844 L 13.992188 12.09375 L 19.976562 12.09375 L 20.023438 11.539062 L 20.136719 10.28125 L 20.195312 9.617188 L 13.992188 9.617188 Z M 13.992188 12.089844 "/>
</g>
</svg>
