<?xml version="1.0" encoding="UTF-8"?>
<svg xmlns="http://www.w3.org/2000/svg" xmlns:xlink="http://www.w3.org/1999/xlink" width="28px" height="28px" viewBox="0 0 28 28" version="1.1">
<g id="surface1">
<path style=" stroke:none;fill-rule:nonzero;fill:rgb(19.215686%,47.058824%,77.647059%);fill-opacity:1;" d="M 4.199219 0 L 23.800781 0 C 26.121094 0 28 1.878906 28 4.199219 L 28 23.800781 C 28 26.121094 26.121094 28 23.800781 28 L 4.199219 28 C 1.878906 28 0 26.121094 0 23.800781 L 0 4.199219 C 0 1.878906 1.878906 0 4.199219 0 Z M 4.199219 0 "/>
<path style=" stroke:none;fill-rule:nonzero;fill:rgb(100%,100%,100%);fill-opacity:1;" d="M 12.742188 15.53125 L 16.242188 15.53125 L 16.242188 13.289062 L 6.453125 13.289062 L 6.453125 15.53125 L 9.953125 15.53125 L 9.953125 25.539062 L 12.742188 25.539062 Z M 17.335938 24.992188 C 17.777344 25.222656 18.320312 25.390625 18.921875 25.507812 C 19.523438 25.621094 20.179688 25.675781 20.835938 25.675781 C 21.492188 25.675781 22.09375 25.617188 22.695312 25.488281 C 23.296875 25.363281 23.789062 25.15625 24.226562 24.886719 C 24.667969 24.597656 25.046875 24.230469 25.265625 23.738281 C 25.484375 23.246094 25.652344 22.699219 25.652344 21.988281 C 25.652344 21.492188 25.578125 21.058594 25.429688 20.675781 C 25.28125 20.292969 25.070312 19.964844 24.773438 19.691406 C 24.496094 19.402344 24.171875 19.144531 23.789062 18.925781 C 23.40625 18.707031 22.96875 18.480469 22.476562 18.269531 C 22.117188 18.125 21.820312 17.980469 21.492188 17.839844 C 21.207031 17.695312 20.960938 17.554688 20.78125 17.414062 C 20.578125 17.265625 20.425781 17.113281 20.316406 16.953125 C 20.207031 16.789062 20.152344 16.609375 20.152344 16.40625 C 20.152344 16.21875 20.199219 16.050781 20.300781 15.898438 C 20.398438 15.746094 20.535156 15.617188 20.710938 15.507812 C 20.886719 15.398438 21.105469 15.316406 21.367188 15.257812 C 21.625 15.199219 21.90625 15.171875 22.242188 15.171875 C 22.472656 15.171875 22.710938 15.1875 22.953125 15.222656 C 23.203125 15.257812 23.460938 15.308594 23.71875 15.378906 C 23.976562 15.453125 24.226562 15.539062 24.484375 15.648438 C 24.722656 15.757812 24.949219 15.882812 25.140625 16.027344 L 25.140625 13.457031 C 24.722656 13.296875 24.265625 13.175781 23.773438 13.101562 C 23.28125 13.023438 22.734375 12.984375 22.078125 12.984375 C 21.421875 12.984375 20.820312 13.054688 20.21875 13.191406 C 19.617188 13.328125 19.125 13.546875 18.6875 13.847656 C 18.242188 14.144531 17.921875 14.503906 17.648438 14.996094 C 17.390625 15.457031 17.265625 15.980469 17.265625 16.636719 C 17.265625 17.457031 17.5 18.167969 17.976562 18.714844 C 18.445312 19.316406 19.179688 19.753906 20.109375 20.191406 C 20.484375 20.347656 20.820312 20.5 21.148438 20.648438 C 21.476562 20.792969 21.75 20.949219 21.96875 21.105469 C 22.203125 21.265625 22.390625 21.441406 22.515625 21.625 C 22.652344 21.8125 22.722656 22.03125 22.722656 22.28125 C 22.722656 22.457031 22.679688 22.621094 22.597656 22.773438 C 22.515625 22.925781 22.382812 23.058594 22.207031 23.167969 C 22.035156 23.277344 21.820312 23.363281 21.550781 23.429688 C 21.296875 23.492188 21.003906 23.523438 20.621094 23.523438 C 20.019531 23.523438 19.417969 23.417969 18.871094 23.210938 C 18.269531 23.003906 17.722656 22.691406 17.335938 22.367188 Z M 17.335938 24.992188 "/>
</g>
</svg>
