<?xml version="1.0" encoding="UTF-8"?>
<svg xmlns="http://www.w3.org/2000/svg" xmlns:xlink="http://www.w3.org/1999/xlink" width="28px" height="28px" viewBox="0 0 28 28" version="1.1">
<g id="surface1">
<path style=" stroke:none;fill-rule:nonzero;fill:rgb(96.862745%,87.45098%,11.764706%);fill-opacity:1;" d="M 4.199219 0 L 23.800781 0 C 26.121094 0 28 1.878906 28 4.199219 L 28 23.800781 C 28 26.121094 26.121094 28 23.800781 28 L 4.199219 28 C 1.878906 28 0 26.121094 0 23.800781 L 0 4.199219 C 0 1.878906 1.878906 0 4.199219 0 Z M 4.199219 0 "/>
<path style=" stroke:none;fill-rule:nonzero;fill:rgb(0%,0%,0%);fill-opacity:1;" d="M 17.71875 20.234375 C 18.265625 21.164062 19.03125 21.820312 20.289062 21.820312 C 21.382812 21.820312 22.09375 21.273438 22.09375 20.507812 C 22.09375 19.632812 21.382812 19.304688 20.179688 18.757812 L 19.523438 18.484375 C 17.609375 17.664062 16.351562 16.679688 16.351562 14.546875 C 16.351562 12.578125 17.828125 11.046875 20.179688 11.046875 C 21.875 11.046875 23.078125 11.648438 23.898438 13.179688 L 21.875 14.492188 C 21.4375 13.671875 20.945312 13.34375 20.179688 13.34375 C 19.414062 13.34375 18.921875 13.835938 18.921875 14.492188 C 18.921875 15.257812 19.414062 15.585938 20.5625 16.078125 L 21.21875 16.351562 C 23.460938 17.335938 24.71875 18.265625 24.71875 20.507812 C 24.71875 22.859375 22.859375 24.171875 20.34375 24.171875 C 17.882812 24.171875 16.296875 23.023438 15.53125 21.492188 Z M 8.421875 20.453125 C 8.859375 21.164062 9.1875 21.820312 10.117188 21.820312 C 10.992188 21.820312 11.539062 21.492188 11.539062 20.179688 L 11.539062 11.101562 L 14.164062 11.101562 L 14.164062 20.070312 C 14.164062 22.804688 12.578125 24.007812 10.226562 24.007812 C 8.09375 24.007812 6.890625 22.914062 6.289062 21.601562 Z M 8.421875 20.453125 "/>
</g>
</svg>
