<?xml version="1.0" encoding="UTF-8"?>
<svg xmlns="http://www.w3.org/2000/svg" xmlns:xlink="http://www.w3.org/1999/xlink" width="28px" height="28px" viewBox="0 0 28 28" version="1.1">
<g id="surface1">
<path style=" stroke:none;fill-rule:nonzero;fill:rgb(46.27451%,29.019608%,73.72549%);fill-opacity:1;" d="M 19.402344 19.222656 C 20.433594 19.113281 21.21875 18.222656 21.183594 17.152344 C 21.148438 16.085938 20.257812 15.230469 19.1875 15.230469 L 19.117188 15.230469 C 18.011719 15.265625 17.15625 16.191406 17.191406 17.296875 C 17.226562 17.832031 17.441406 18.292969 17.761719 18.613281 C 16.550781 21.003906 14.699219 22.75 11.917969 24.210938 C 10.03125 25.207031 8.070312 25.5625 6.109375 25.3125 C 4.507812 25.101562 3.261719 24.386719 2.476562 23.210938 C 1.335938 21.464844 1.230469 19.578125 2.191406 17.6875 C 2.867188 16.335938 3.9375 15.335938 4.613281 14.839844 C 4.472656 14.375 4.257812 13.589844 4.152344 13.019531 C -1.015625 16.761719 -0.480469 21.820312 1.085938 24.210938 C 2.261719 25.992188 4.648438 27.09375 7.285156 27.09375 C 8 27.09375 8.710938 27.023438 9.425781 26.847656 C 13.984375 25.957031 17.441406 23.246094 19.402344 19.222656 Z M 25.671875 14.800781 C 22.964844 11.632812 18.972656 9.886719 14.414062 9.886719 L 13.84375 9.886719 C 13.523438 9.242188 12.84375 8.816406 12.097656 8.816406 L 12.023438 8.816406 C 10.921875 8.851562 10.066406 9.777344 10.101562 10.882812 C 10.136719 11.953125 11.027344 12.808594 12.097656 12.808594 L 12.167969 12.808594 C 12.953125 12.769531 13.628906 12.273438 13.914062 11.59375 L 14.554688 11.59375 C 17.261719 11.59375 19.828125 12.378906 22.144531 13.910156 C 23.925781 15.085938 25.207031 16.621094 25.921875 18.472656 C 26.527344 19.96875 26.492188 21.429688 25.851562 22.675781 C 24.851562 24.566406 23.179688 25.597656 20.96875 25.597656 C 19.542969 25.597656 18.191406 25.171875 17.476562 24.851562 C 17.085938 25.207031 16.371094 25.777344 15.875 26.132812 C 17.40625 26.847656 18.972656 27.238281 20.46875 27.238281 C 23.890625 27.238281 26.421875 25.347656 27.382812 23.460938 C 28.414062 21.394531 28.34375 17.832031 25.671875 14.800781 Z M 7.570312 19.828125 C 7.605469 20.894531 8.496094 21.75 9.566406 21.75 L 9.636719 21.75 C 10.742188 21.714844 11.597656 20.789062 11.5625 19.683594 C 11.527344 18.613281 10.636719 17.761719 9.566406 17.761719 L 9.496094 17.761719 C 9.425781 17.761719 9.316406 17.761719 9.246094 17.796875 C 7.785156 15.371094 7.179688 12.734375 7.394531 9.886719 C 7.535156 7.746094 8.25 5.894531 9.496094 4.363281 C 10.527344 3.042969 12.523438 2.402344 13.878906 2.367188 C 17.65625 2.296875 19.257812 7 19.367188 8.886719 C 19.828125 8.996094 20.613281 9.242188 21.148438 9.421875 C 20.71875 3.648438 17.15625 0.65625 13.734375 0.65625 C 10.527344 0.65625 7.570312 2.972656 6.394531 6.394531 C 4.757812 10.953125 5.824219 15.335938 7.820312 18.792969 C 7.644531 19.042969 7.535156 19.433594 7.570312 19.828125 Z M 7.570312 19.828125 "/>
</g>
</svg>
