<?xml version="1.0" encoding="UTF-8"?>
<svg xmlns="http://www.w3.org/2000/svg" xmlns:xlink="http://www.w3.org/1999/xlink" width="28px" height="28px" viewBox="0 0 28 28" version="1.1">
<g id="surface1">
<path style=" stroke:none;fill-rule:nonzero;fill:rgb(80.392157%,40.392157%,60%);fill-opacity:1;" d="M 14.148438 16.363281 C 13.730469 16.554688 13.269531 16.808594 12.34375 17.316406 C 11.996094 17.511719 11.628906 17.707031 11.289062 17.894531 C 11.265625 17.871094 11.242188 17.839844 11.214844 17.816406 C 9.390625 15.863281 6.011719 14.488281 6.15625 11.867188 C 6.210938 10.910156 6.539062 8.40625 12.644531 5.363281 C 17.667969 2.886719 21.664062 3.570312 22.355469 5.09375 C 23.347656 7.261719 20.210938 11.300781 15.023438 11.882812 C 13.859375 12.121094 12.652344 11.816406 11.742188 11.054688 C 11.46875 10.757812 11.425781 10.738281 11.324219 10.796875 C 11.15625 10.886719 11.265625 11.15625 11.324219 11.3125 C 11.722656 12.035156 12.398438 12.566406 13.199219 12.785156 C 15.238281 13.226562 17.367188 13.015625 19.285156 12.183594 C 22.429688 10.964844 24.882812 7.582031 24.164062 4.746094 C 23.441406 1.867188 18.667969 0.917969 14.152344 2.523438 C 11.324219 3.476562 8.710938 4.976562 6.460938 6.941406 C 3.972656 9.269531 3.578125 11.289062 3.738281 12.136719 C 4.320312 15.144531 8.464844 17.101562 10.128906 18.550781 C 10.039062 18.601562 9.964844 18.640625 9.902344 18.679688 C 9.070312 19.089844 5.910156 20.742188 5.121094 22.492188 C 4.226562 24.472656 5.265625 25.890625 5.949219 26.082031 C 8.070312 26.589844 10.277344 25.695312 11.445312 23.855469 C 12.429688 22.347656 12.609375 20.453125 11.933594 18.78125 C 12.132812 18.625 12.339844 18.484375 12.5625 18.363281 C 12.984375 18.113281 13.386719 17.867188 13.746094 17.675781 C 14.972656 17.101562 16.308594 16.808594 17.660156 16.8125 C 20.503906 17.144531 21.0625 18.917969 20.957031 19.664062 C 20.851562 20.199219 20.523438 20.664062 20.054688 20.941406 C 19.855469 21.066406 19.792969 21.109375 19.808594 21.195312 C 19.832031 21.328125 19.929688 21.320312 20.09375 21.296875 C 20.96875 21.023438 21.582031 20.238281 21.640625 19.324219 C 21.726562 17.574219 20.058594 15.652344 17.105469 15.671875 C 16.222656 15.671875 15.34375 15.847656 14.527344 16.183594 C 14.394531 16.238281 14.269531 16.296875 14.144531 16.359375 Z M 9.929688 23.222656 C 8.984375 24.246094 7.671875 24.636719 7.105469 24.308594 C 6.492188 23.957031 6.734375 22.4375 7.890625 21.351562 C 8.578125 20.734375 9.320312 20.183594 10.105469 19.699219 C 10.242188 19.613281 10.445312 19.496094 10.691406 19.351562 C 10.734375 19.328125 10.757812 19.316406 10.757812 19.316406 L 10.898438 19.226562 C 11.320312 20.636719 10.949219 22.164062 9.929688 23.222656 Z M 9.929688 23.222656 "/>
</g>
</svg>
