<?xml version="1.0" encoding="UTF-8"?>
<svg xmlns="http://www.w3.org/2000/svg" xmlns:xlink="http://www.w3.org/1999/xlink" width="28px" height="28px" viewBox="0 0 28 28" version="1.1">
<g id="surface1">
<path style=" stroke:none;fill-rule:nonzero;fill:rgb(26.666667%,65.882353%,70.196078%);fill-opacity:1;" d="M 7.875 11.988281 C 8.691406 8.722656 10.734375 7.085938 14 7.085938 C 18.898438 7.085938 19.511719 10.761719 21.960938 11.375 C 23.597656 11.785156 25.023438 11.171875 26.25 9.539062 C 25.433594 12.804688 23.390625 14.4375 20.125 14.4375 C 15.226562 14.4375 14.613281 10.761719 12.164062 10.148438 C 10.527344 9.742188 9.101562 10.355469 7.875 11.988281 Z M 1.75 19.335938 C 2.566406 16.070312 4.609375 14.4375 7.875 14.4375 C 12.773438 14.4375 13.386719 18.113281 15.835938 18.726562 C 17.472656 19.132812 18.898438 18.519531 20.125 16.886719 C 19.308594 20.152344 17.265625 21.789062 14 21.789062 C 9.101562 21.789062 8.488281 18.113281 6.039062 17.5 C 4.402344 17.089844 2.976562 17.703125 1.75 19.335938 Z M 1.75 19.335938 "/>
</g>
</svg>
