<?xml version="1.0" encoding="UTF-8"?>
<svg xmlns="http://www.w3.org/2000/svg" xmlns:xlink="http://www.w3.org/1999/xlink" width="28px" height="28px" viewBox="0 0 28 28" version="1.1">
<g id="surface1">
<path style=" stroke:none;fill-rule:nonzero;fill:rgb(100%,100%,100%);fill-opacity:1;" d="M 14 0.00390625 L 26.359375 6.996094 L 26.359375 20.980469 L 14 27.972656 L 1.640625 20.980469 L 1.640625 6.996094 Z M 14 0.00390625 "/>
<path style=" stroke:none;fill-rule:nonzero;fill:rgb(55.686275%,83.921569%,98.431373%);fill-opacity:1;" d="M 24.152344 20.496094 L 14.410156 26.015625 L 14.410156 21.722656 L 20.484375 18.378906 Z M 24.820312 19.894531 L 24.820312 8.367188 L 21.257812 10.421875 L 21.257812 17.839844 Z M 3.808594 20.496094 L 13.550781 26.007812 L 13.550781 21.71875 L 7.480469 18.378906 Z M 3.144531 19.894531 L 3.144531 8.367188 L 6.707031 10.421875 L 6.707031 17.839844 Z M 3.558594 7.621094 L 13.550781 1.96875 L 13.550781 6.117188 L 7.148438 9.640625 L 7.097656 9.667969 Z M 24.398438 7.621094 L 14.410156 1.96875 L 14.410156 6.117188 L 20.808594 9.644531 L 20.859375 9.671875 Z M 24.398438 7.621094 "/>
<path style=" stroke:none;fill-rule:nonzero;fill:rgb(10.980392%,47.058824%,75.294118%);fill-opacity:1;" d="M 13.550781 20.742188 L 7.5625 17.445312 L 7.5625 10.921875 L 13.550781 14.378906 Z M 14.410156 20.742188 L 20.398438 17.453125 L 20.398438 10.921875 L 14.410156 14.378906 Z M 7.964844 10.167969 L 13.980469 6.859375 L 19.992188 10.167969 L 13.980469 13.636719 Z M 7.964844 10.167969 "/>
</g>
</svg>
