<?xml version="1.0" encoding="utf-8"?>
<!-- Generator: Adobe Illustrator 27.2.0, SVG Export Plug-In . SVG Version: 6.00 Build 0)  -->
<svg version="1.1" id="Livello_1" xmlns="http://www.w3.org/2000/svg" xmlns:xlink="http://www.w3.org/1999/xlink" x="0px" y="0px"
	 viewBox="0 0 28 28" style="enable-background:new 0 0 28 28;" xml:space="preserve">
<style type="text/css">
	.st0{fill:#FFFFFF;}
</style>
<g id="surface1">
	<path class="st0" d="M13.1,0c-0.1,0-0.2,0-0.4,0C8.7,0.4,5,2.6,2.6,5.8c-1.3,1.9-2.2,4-2.5,6.2C0,12.7,0,13,0,14s0,1.3,0.1,2
		c0.8,5.3,4.5,9.7,9.6,11.3c0.9,0.3,1.9,0.5,3,0.6c0.4,0,2.3,0,2.7,0c1.9-0.2,3.5-0.7,5-1.5c0.2-0.1,0.3-0.2,0.3-0.2
		s-1.1-1.4-2.3-3.1l-2.2-3l-2.8-4.2c-1.5-2.3-2.8-4.1-2.8-4.1s0,1.8,0,4.1c0,3.9,0,4.1-0.1,4.2c-0.1,0.1-0.1,0.2-0.2,0.2
		c-0.1,0-0.2,0.1-0.6,0.1H9.1H9c-0.1-0.1-0.1-0.1-0.2-0.2l-0.1-0.1v-5.5V9.1L8.8,9C8.9,9,9,8.9,9,8.9c0.1-0.1,0.2-0.1,0.6-0.1
		c0.6,0,0.7,0,0.8,0.2c0,0,1.6,2.3,3.4,5.1s4.3,6.5,5.5,8.4l2.2,3.4l0.1-0.1c1-0.6,2-1.6,2.9-2.5c1.8-2,2.9-4.5,3.3-7.2
		c0.1-0.8,0.1-1,0.1-2s0-1.3-0.1-2C27,6.8,23.3,2.4,18.2,0.8c-0.9-0.3-1.8-0.5-2.9-0.6C15.1,0,13.3,0,13.1,0z M18.8,8.5
		c0.1,0.1,0.2,0.2,0.3,0.3c0,0.1,0,1.6,0,5v4.9l-0.9-1.3l-0.9-1.3v-3.6c0-2.3,0-3.6,0-3.7c0-0.2,0.1-0.3,0.3-0.3
		c0.1-0.1,0.2-0.1,0.6-0.1C18.7,8.4,18.7,8.4,18.8,8.5z"/>
</g>
</svg>
