<?xml version="1.0" encoding="UTF-8"?>
<svg xmlns="http://www.w3.org/2000/svg" xmlns:xlink="http://www.w3.org/1999/xlink" width="28px" height="28px" viewBox="0 0 28 28" version="1.1">
<g id="surface1">
<path style=" stroke:none;fill-rule:nonzero;fill:rgb(32.54902%,75.686275%,87.058824%);fill-opacity:1;" d="M 16.34375 13.980469 C 16.34375 12.722656 15.292969 11.707031 14 11.707031 C 12.707031 11.707031 11.65625 12.722656 11.65625 13.980469 C 11.65625 15.234375 12.707031 16.25 14 16.25 C 15.292969 16.25 16.34375 15.234375 16.34375 13.980469 Z M 16.34375 13.980469 "/>
<path style=" stroke:none;fill-rule:evenodd;fill:rgb(32.54902%,75.686275%,87.058824%);fill-opacity:1;" d="M 21.613281 9.757812 C 22.109375 7.808594 22.730469 4.191406 20.535156 2.964844 C 18.351562 1.746094 15.511719 4.085938 14.011719 5.488281 C 12.515625 4.097656 9.59375 1.769531 7.402344 3 C 5.222656 4.222656 5.894531 7.78125 6.402344 9.742188 C 4.363281 10.304688 0.875 11.511719 0.875 13.980469 C 0.875 16.4375 4.359375 17.753906 6.386719 18.3125 C 5.878906 20.285156 5.238281 23.792969 7.421875 25.015625 C 9.621094 26.242188 12.535156 23.96875 14.046875 22.550781 C 15.558594 23.964844 18.371094 26.25 20.554688 25.027344 C 22.746094 23.796875 22.175781 20.230469 21.667969 18.253906 C 23.632812 17.695312 27.125 16.410156 27.125 13.980469 C 27.125 11.535156 23.617188 10.316406 21.613281 9.757812 Z M 21.363281 17.207031 C 21.03125 16.1875 20.582031 15.105469 20.035156 13.984375 C 20.558594 12.890625 20.988281 11.820312 21.3125 10.808594 C 22.78125 11.21875 26.003906 12.164062 26.003906 13.980469 C 26.003906 15.8125 22.910156 16.765625 21.363281 17.207031 Z M 19.992188 24.085938 C 18.363281 25 15.945312 22.8125 14.828125 21.769531 C 15.570312 20.988281 16.308594 20.074219 17.03125 19.0625 C 18.296875 18.953125 19.496094 18.773438 20.585938 18.53125 C 20.941406 19.925781 21.628906 23.167969 19.992188 24.085938 Z M 7.984375 24.070312 C 6.355469 23.160156 7.097656 20.03125 7.472656 18.578125 C 8.546875 18.808594 9.738281 18.976562 11.007812 19.074219 C 11.734375 20.066406 12.496094 20.976562 13.261719 21.773438 C 12.316406 22.664062 9.621094 24.988281 7.984375 24.070312 Z M 1.996094 13.980469 C 1.996094 12.140625 5.199219 11.203125 6.703125 10.792969 C 7.03125 11.828125 7.460938 12.910156 7.980469 14.003906 C 7.453125 15.117188 7.015625 16.21875 6.6875 17.265625 C 5.253906 16.867188 1.996094 15.820312 1.996094 13.980469 Z M 7.964844 3.941406 C 9.601562 3.023438 12.140625 5.257812 13.226562 6.265625 C 12.464844 7.058594 11.710938 7.964844 10.992188 8.949219 C 9.753906 9.058594 8.574219 9.238281 7.488281 9.476562 C 7.078125 7.894531 6.332031 4.859375 7.964844 3.941406 Z M 17.832031 10.128906 C 18.667969 10.234375 19.472656 10.367188 20.226562 10.535156 C 20 11.238281 19.71875 11.972656 19.386719 12.726562 C 18.902344 11.839844 18.386719 10.972656 17.832031 10.128906 Z M 14.011719 7.042969 C 14.53125 7.585938 15.046875 8.191406 15.558594 8.851562 C 14.523438 8.804688 13.488281 8.800781 12.453125 8.847656 C 12.964844 8.199219 13.488281 7.589844 14.011719 7.042969 Z M 8.625 12.726562 C 8.296875 11.976562 8.019531 11.238281 7.789062 10.523438 C 8.539062 10.363281 9.339844 10.230469 10.171875 10.128906 C 9.613281 10.96875 9.097656 11.835938 8.625 12.726562 Z M 10.195312 17.90625 C 9.335938 17.816406 8.523438 17.6875 7.773438 17.53125 C 8.007812 16.804688 8.292969 16.050781 8.625 15.285156 C 9.105469 16.179688 9.628906 17.058594 10.195312 17.90625 Z M 14.042969 20.992188 C 13.511719 20.4375 12.980469 19.820312 12.464844 19.160156 C 13.503906 19.199219 14.546875 19.199219 15.585938 19.15625 C 15.074219 19.828125 14.558594 20.445312 14.042969 20.992188 Z M 19.394531 15.246094 C 19.746094 16.019531 20.042969 16.769531 20.277344 17.484375 C 19.515625 17.652344 18.695312 17.789062 17.828125 17.886719 C 18.386719 17.027344 18.914062 16.148438 19.394531 15.246094 Z M 16.402344 18.019531 C 14.8125 18.128906 13.214844 18.128906 11.625 18.027344 C 10.71875 16.75 9.914062 15.402344 9.21875 14.003906 C 9.910156 12.609375 10.710938 11.265625 11.609375 9.988281 C 13.203125 9.871094 14.804688 9.871094 16.394531 9.988281 C 17.285156 11.265625 18.085938 12.609375 18.792969 13.988281 C 18.09375 15.382812 17.289062 16.730469 16.402344 18.019531 Z M 19.976562 3.910156 C 21.613281 4.824219 20.882812 8.074219 20.527344 9.488281 C 19.4375 9.242188 18.253906 9.0625 17.015625 8.949219 C 16.296875 7.953125 15.546875 7.046875 14.796875 6.265625 C 15.898438 5.238281 18.355469 3.003906 19.976562 3.910156 Z M 19.976562 3.910156 "/>
</g>
</svg>
