<?xml version="1.0" encoding="UTF-8"?><svg id="Livello_2" xmlns="http://www.w3.org/2000/svg" viewBox="0 0 583.53 398.51"><defs><style>.cls-1{fill:#d12a08;}</style></defs><g id="Livello_1-2"><path class="cls-1" d="m242.23,97.96l-35.37,61.26,81.33,141.27,35.35-61.23-81.31-141.3ZM.02,383.15h3.59c42.81-1.37,80.07-24.7,100.9-59.1l.63-.91,103.81-179.8,34.72-60.2,40.16-69.4,7.92-13.74,187.38,324.38c21.46,35.09,60.07,58.55,104.17,58.72l.23.06v6.12h-269.87v-2.26l-.03-3.82,2.05-.04c28.75-1.02,51.75-24.62,51.75-53.61,0-9.17-2.3-17.82-6.36-25.36l-33.99-58.78-79.99,138.55-8.52,14.56-84.91-147.13-27.6,47.83c-6.15,8.93-9.44,19.52-9.42,30.36,0,27.12,20.16,49.55,46.31,53.1,1.15.28,2.31.44,3.51.48h3.19v6.12H.02v-2.24l-.02-3.82.02-.06Z"/></g></svg>